<?xml version="1.0" standalone="no"?>
<!DOCTYPE svg PUBLIC "-//W3C//DTD SVG 20010904//EN"
 "http://www.w3.org/TR/2001/REC-SVG-20010904/DTD/svg10.dtd">
<svg version="1.0" xmlns="http://www.w3.org/2000/svg"
 width="528.000000pt" height="477.000000pt" viewBox="0 0 528.000000 477.000000"
 preserveAspectRatio="xMidYMid meet">

<g transform="translate(0.000000,477.000000) scale(0.100000,-0.100000)"
fill="#000000" stroke="none">
<path d="M0 2385 l0 -2385 2640 0 2640 0 0 2385 0 2385 -2640 0 -2640 0 0
-2385z m2638 775 c17 -14 31 -31 31 -37 1 -7 16 -19 35 -27 53 -22 91 -91 98
-181 3 -27 9 -32 56 -48 52 -17 54 -17 79 3 14 11 32 20 40 20 8 0 54 41 102
90 48 50 93 90 98 90 6 0 27 20 46 44 42 51 100 72 175 63 39 -4 53 -12 82
-44 19 -22 47 -47 62 -56 16 -10 31 -32 37 -54 7 -23 11 -170 11 -371 l0 -333
44 -47 c28 -31 46 -61 51 -87 11 -52 6 -500 -5 -530 -8 -21 -90 -85 -110 -85
-5 0 -11 -8 -15 -19 -3 -10 -16 -30 -28 -43 -13 -14 -34 -39 -48 -57 -17 -21
-39 -35 -65 -41 -36 -8 -822 -17 -1177 -12 -131 1 -153 4 -182 22 -19 12 -37
31 -41 43 -9 31 -22 37 -77 37 -64 0 -112 22 -132 59 l-16 31 -104 0 c-57 0
-114 5 -127 11 -13 5 -32 27 -43 47 -18 34 -24 37 -66 40 -45 3 -48 1 -76 -40
-19 -29 -38 -45 -58 -49 -45 -10 -284 -9 -335 0 -76 15 -80 27 -80 226 0 184
8 230 43 240 22 6 60 21 87 35 8 4 17 16 19 26 1 10 10 27 19 37 14 15 39 17
252 17 187 0 240 3 255 14 17 12 20 31 25 131 6 125 11 137 68 152 12 3 29 20
38 39 9 19 31 44 48 56 17 12 35 29 40 37 31 51 61 68 133 75 62 6 73 10 79
29 9 31 44 67 66 67 11 0 25 16 39 45 16 33 29 47 55 55 23 8 39 22 47 40 7
16 28 39 47 52 19 13 42 38 50 55 8 18 23 35 33 39 9 3 38 30 64 59 25 30 53
56 62 59 9 3 43 4 77 2 47 -1 68 -7 92 -26z m1437 -250 c3 -6 -1 -7 -9 -4 -18
7 -21 14 -7 14 6 0 13 -4 16 -10z"/>
<path d="M2501 3081 c-6 -11 -11 -33 -11 -50 0 -29 -2 -31 -40 -31 -28 0 -42
-5 -49 -19 -6 -10 -8 -21 -4 -24 3 -3 3 -18 -1 -32 -5 -21 -12 -25 -44 -25
-48 0 -62 -14 -62 -62 0 -37 -1 -38 -38 -38 -48 0 -62 -14 -62 -62 0 -37 -1
-38 -34 -38 -57 0 -66 -8 -66 -56 l0 -44 -88 0 c-100 0 -112 -7 -112 -62 0
-23 -5 -38 -12 -39 -7 -1 -20 -2 -28 -3 -8 -2 -25 -3 -37 -4 -20 -2 -23 -8
-23 -46 0 -47 -19 -64 -57 -52 -39 12 -42 -3 -45 -198 -3 -206 -6 -216 -61
-202 -22 5 -26 12 -29 49 l-3 42 -255 0 -254 0 -3 -35 c-5 -55 -9 -61 -48 -58
-19 1 -40 -3 -45 -8 -7 -7 -10 -65 -8 -155 l3 -144 155 0 155 0 3 42 c4 53 8
55 167 51 l120 -3 5 -45 5 -45 145 -5 145 -5 5 -45 5 -45 95 -5 95 -5 5 -45 5
-45 660 0 660 0 1 36 c2 50 9 59 54 59 42 0 50 10 50 65 0 33 1 34 48 37 l47
3 0 250 0 250 -40 3 c-22 2 -43 7 -47 11 -5 4 -8 180 -8 392 -1 211 -4 390 -8
396 -4 6 -28 13 -52 15 -43 3 -45 5 -46 34 -2 58 -9 65 -61 62 l-48 -3 -5 -45
-5 -45 -45 -5 -45 -5 -3 -47 -3 -47 -47 -3 -47 -3 -3 -47 c-3 -47 -4 -48 -37
-48 -56 0 -65 -8 -65 -56 l0 -44 -95 0 -95 0 0 44 c0 48 -9 56 -65 56 l-34 0
-3 98 -3 97 -47 3 -47 3 -3 47 -3 47 -47 3 c-38 2 -49 -1 -57 -17z m88 -200
c10 -6 12 -29 10 -89 -2 -44 -6 -83 -9 -86 -3 -3 -23 -6 -44 -8 -26 -1 -41 -8
-48 -23 -6 -11 -11 -21 -10 -22 1 -2 2 -14 2 -28 0 -25 -1 -25 -90 -25 l-90 0
0 40 c0 22 3 40 8 41 84 9 92 14 90 54 -2 45 7 53 57 57 39 3 40 4 43 43 2 22
9 43 15 47 16 10 49 10 66 -1z m795 3 c14 -5 16 -28 16 -145 l0 -139 -39 0
c-42 0 -53 12 -45 53 5 31 -11 45 -61 49 -42 3 -41 1 -37 66 2 19 7 22 47 22
l45 0 0 44 c0 26 5 46 13 49 18 8 43 8 61 1z m-710 -910 c11 -4 16 -19 16 -45
l0 -40 -137 3 -138 3 2 34 c1 18 7 38 15 42 15 10 218 12 242 3z m721 -39 l0
-40 -135 0 -135 0 -3 34 c-2 20 2 37 10 42 7 5 69 8 138 7 l125 -3 0 -40z"/>
</g>
</svg>
